<svg width="20" height="20" viewBox="0 0 20 20" fill="none" xmlns="http://www.w3.org/2000/svg">
<path d="M7.68265 13.0004V17.0004C7.68265 17.796 7.99872 18.5591 8.56133 19.1217C9.12394 19.6843 9.887 20.0004 10.6826 20.0004L14.6826 11.0004V0.000361495H3.40265C2.92032 -0.00509124 2.45227 0.163956 2.08474 0.476355C1.71721 0.788754 1.47497 1.22346 1.40265 1.70036L0.0226475 10.7004C-0.02086 10.987 -0.00152661 11.2797 0.079308 11.5581C0.160143 11.8365 0.300545 12.0941 0.490789 12.3128C0.681033 12.5316 0.916568 12.7064 1.18108 12.8251C1.44558 12.9439 1.73274 13.0036 2.02265 13.0004H7.68265ZM14.6826 0.000361495H17.3526C17.9186 -0.00964765 18.4685 0.188497 18.8981 0.55718C19.3276 0.925864 19.6068 1.43942 19.6826 2.00036V9.00036C19.6068 9.5613 19.3276 10.0749 18.8981 10.4435C18.4685 10.8122 17.9186 11.0104 17.3526 11.0004H14.6826" fill="#FF0000"/>
</svg>
